<?xml version="1.0" standalone="no"?><svg xmlns="http://www.w3.org/2000/svg" viewBox="0 0 1440 320"><path fill="#4B6587" fill-opacity="1" d="M0,128L40,138.7C80,149,160,171,240,197.3C320,224,400,256,480,245.3C560,235,640,181,720,176C800,171,880,213,960,202.7C1040,192,1120,128,1200,138.7C1280,149,1360,235,1400,277.3L1440,320L1440,320L1400,320C1360,320,1280,320,1200,320C1120,320,1040,320,960,320C880,320,800,320,720,320C640,320,560,320,480,320C400,320,320,320,240,320C160,320,80,320,40,320L0,320Z"></path></svg>